# Blender 4.3.2
# www.blender.org
mtllib milk.mtl
o Cube.001
v 0.068651 2.730175 -1.000000
v 1.000000 -1.000000 -1.000000
v 0.068651 2.730175 1.000000
v 1.000000 -1.000000 1.000000
v -0.068651 2.730175 -1.000000
v -1.000000 -1.000000 -1.000000
v -0.068651 2.730175 1.000000
v -1.000000 -1.000000 1.000000
v 1.000000 1.545035 -1.000000
v -1.000000 1.545035 1.000000
v 1.000000 1.545035 1.000000
v -1.000000 1.545035 -1.000000
v 0.068651 2.973409 1.000000
v -0.068651 2.973409 1.000000
v 0.068651 2.973409 -1.000000
v -0.068651 2.973409 -1.000000
v 1.000000 0.457436 -1.000000
v 1.000000 0.457436 1.000000
v -1.000000 0.457436 -1.000000
v -1.000000 0.457436 1.000000
vn -0.0000 -0.0000 -1.0000
vn -0.0000 -0.0000 1.0000
vn -0.7863 0.6179 -0.0000
vn -0.0000 -1.0000 -0.0000
vn 0.7863 0.6179 -0.0000
vn 1.0000 -0.0000 -0.0000
vn -1.0000 -0.0000 -0.0000
vn -0.0000 1.0000 -0.0000
vt 0.134475 0.030608
vt 0.117198 0.030608
vt 0.117198 0.000000
vt 0.134475 0.000000
vt 0.251673 0.179742
vt 0.368871 0.030608
vt 0.386148 0.030608
vt 0.503346 0.179742
vt 0.000000 0.679742
vt 0.000000 0.530608
vt 0.251673 0.530608
vt 0.251673 0.679742
vt 0.755019 0.000000
vt 0.755019 0.251673
vt 0.503346 0.251673
vt 0.503346 0.000000
vt 0.503346 0.530608
vt 0.503346 0.679742
vt 0.000000 0.179742
vt 0.000000 0.316601
vt 0.251673 0.316601
vt 0.251673 0.816601
vt 0.503346 0.816601
vt 0.000000 0.816601
vt 0.251673 0.816601
vt 0.503346 0.316601
vt 0.520624 0.503346
vt 0.503346 0.503346
vt 0.503346 0.251673
vt 0.520624 0.251673
vt 0.368871 0.000000
vt 0.386148 0.000000
vt 0.000000 0.500000
vt 0.251673 0.500000
vt 0.503346 0.500000
vt 0.000000 1.000000
vt 0.251673 1.000000
vt 0.503346 1.000000
s 0
usemtl Material.002
f 1/1/1 5/2/1 16/3/1 15/4/1
f 11/5/2 3/6/2 7/7/2 10/8/2
f 10/9/3 7/10/3 5/11/3 12/12/3
f 6/13/4 2/14/4 4/15/4 8/16/4
f 9/12/5 1/11/5 3/17/5 11/18/5
f 12/19/1 5/2/1 1/1/1 9/5/1
f 19/20/1 12/19/1 9/5/1 17/21/1
f 17/22/6 9/12/6 11/18/6 18/23/6
f 20/24/7 10/9/7 12/12/7 19/25/7
f 18/21/2 11/5/2 10/8/2 20/26/2
f 15/27/8 16/28/8 14/29/8 13/30/8
f 7/7/2 3/6/2 13/31/2 14/32/2
f 5/11/7 7/10/7 14/33/7 16/34/7
f 3/17/6 1/11/6 15/34/6 13/35/6
f 4/34/2 18/21/2 20/26/2 8/35/2
f 8/36/7 20/24/7 19/25/7 6/37/7
f 2/37/6 17/22/6 18/23/6 4/38/6
f 6/33/1 19/20/1 17/21/1 2/34/1
